<svg id="Layer_1" data-name="Layer 1" xmlns="http://www.w3.org/2000/svg" viewBox="0 0 286.75 78.61"><defs><style>.cls-1{fill:#fff;}.cls-2{fill:#fff;}</style></defs><title>Untitled-1</title><polygon class="cls-1" points="92.47 49.18 121.89 0 167.53 0 196.56 49.18 133.28 49.18 141.36 35.65 159.12 35.65 145.16 12.68 123.2 49.18 92.47 49.18"/><polygon class="cls-1" points="203.19 0 286.51 0 286.51 14.29 235.53 14.29 235.53 22.94 285.84 22.95 285.84 36.55 235.53 36.55 235.53 49.17 203.21 49.17 203.19 0"/><rect class="cls-2" y="59.94" width="286.75" height="18.66"/><path class="cls-1" d="M42.94,86.57H99.5c16.42,0,24.34-3.12,29.34-8.12a24.19,24.19,0,0,0,6.73-16.29,24.19,24.19,0,0,0-6.73-16.3c-5-5-12.91-8.11-29.34-8.11H42.94ZM74.63,50.82H88.32c6.54,0,8.38,1.29,10.59,3.37a11.44,11.44,0,0,1,3.4,8.14,11.09,11.09,0,0,1-3.39,8.19c-2.22,2.08-4.15,3.32-10.33,3.32h-14v-23Z" transform="translate(-42.94 -37.75)"/></svg>