<?xml version="1.0" encoding="utf-8"?>
<!-- Generator: Adobe Illustrator 20.0.0, SVG Export Plug-In . SVG Version: 6.00 Build 0)  -->
<svg version="1.1" xmlns="http://www.w3.org/2000/svg" xmlns:xlink="http://www.w3.org/1999/xlink" x="0px" y="0px"
	 viewBox="0 0 48 48" style="enable-background:new 0 0 48 48;" xml:space="preserve">
<g>
	<path d="M39,37.4V21h-3.4c0.3,1.1,0.5,2.2,0.5,3.3c0,2.1-0.5,4.1-1.6,5.9c-1.1,1.8-2.5,3.2-4.4,4.3
		c-1.9,1-3.9,1.6-6.1,1.6c-3.3,0-6.2-1.1-8.5-3.4c-2.4-2.3-3.5-5-3.5-8.3c0-1.1,0.2-2.2,0.5-3.3H8.9v16.4c0,0.4,0.1,0.8,0.4,1.1
		c0.3,0.3,0.7,0.4,1.1,0.4h27c0.4,0,0.8-0.1,1.1-0.4C38.8,38.2,39,37.8,39,37.4z M31.8,23.9c0-2.1-0.8-3.9-2.3-5.3s-3.4-2.2-5.5-2.2
		c-2.1,0-4,0.7-5.5,2.2c-1.5,1.5-2.3,3.3-2.3,5.3s0.8,3.9,2.3,5.3c1.5,1.5,3.4,2.2,5.5,2.2c2.2,0,4-0.7,5.5-2.2
		C31.1,27.8,31.8,26,31.8,23.9z M39,14.8v-4.2c0-0.5-0.2-0.9-0.5-1.2s-0.7-0.5-1.2-0.5h-4.4c-0.5,0-0.9,0.2-1.2,0.5
		s-0.5,0.8-0.5,1.2v4.2c0,0.5,0.2,0.9,0.5,1.2c0.3,0.3,0.7,0.5,1.2,0.5h4.4c0.5,0,0.9-0.2,1.2-0.5C38.8,15.7,39,15.3,39,14.8z
		 M43.4,9.6v28.8c0,1.4-0.5,2.5-1.5,3.5s-2.1,1.5-3.5,1.5H9.6c-1.4,0-2.5-0.5-3.5-1.5s-1.5-2.1-1.5-3.5V9.6c0-1.4,0.5-2.5,1.5-3.5
		s2.1-1.5,3.5-1.5h28.8c1.4,0,2.5,0.5,3.5,1.5S43.4,8.2,43.4,9.6z"/>
</g>
</svg>
