<?xml version="1.0" encoding="utf-8"?>
<!-- Generator: Adobe Illustrator 20.0.0, SVG Export Plug-In . SVG Version: 6.00 Build 0)  -->
<svg version="1.1" xmlns="http://www.w3.org/2000/svg" xmlns:xlink="http://www.w3.org/1999/xlink" x="0px" y="0px"
	 viewBox="0 0 48 48" style="enable-background:new 0 0 48 48;" xml:space="preserve">
<g>
	<path d="M29.6,24.3c0,2.7-0.6,5.2-1.7,7.3s-2.8,3.8-4.9,5s-4.5,1.8-7.3,1.8c-2,0-3.8-0.4-5.6-1.1s-3.3-1.8-4.6-3.1
		c-1.3-1.3-2.3-2.8-3.1-4.6S1.3,26,1.3,24s0.4-3.8,1.1-5.6c0.8-1.8,1.8-3.3,3.1-4.6s2.8-2.3,4.6-3.1s3.7-1.1,5.6-1.1
		c3.8,0,7,1.3,9.7,3.8l-3.9,3.8c-1.5-1.5-3.5-2.2-5.8-2.2c-1.6,0-3.1,0.4-4.5,1.2S8.8,18,8,19.4c-0.8,1.4-1.2,2.9-1.2,4.6
		s0.4,3.2,1.2,4.6c0.8,1.4,1.9,2.5,3.3,3.3s2.9,1.2,4.5,1.2c1.1,0,2.1-0.2,3-0.5s1.7-0.7,2.3-1.1c0.6-0.5,1.1-1,1.6-1.6
		c0.4-0.6,0.8-1.1,1-1.6c0.2-0.5,0.3-1,0.4-1.5h-8.2v-5h13.7C29.5,22.8,29.6,23.6,29.6,24.3z M46.8,21.9v4.1h-4.1v4.1h-4.1v-4.1
		h-4.1v-4.1h4.1v-4.1h4.1v4.1H46.8z"/>
</g>
</svg>
