<?xml version="1.0" encoding="utf-8"?>
<!-- Generator: Adobe Illustrator 20.0.0, SVG Export Plug-In . SVG Version: 6.00 Build 0)  -->
<svg version="1.1" xmlns="http://www.w3.org/2000/svg" xmlns:xlink="http://www.w3.org/1999/xlink" x="0px" y="0px"
	 viewBox="0 0 48 48" style="enable-background:new 0 0 48 48;" xml:space="preserve">
<g>
	<path d="M47.9,9.2c-1.4,2-3,3.7-4.9,5.1c0,0.3,0,0.7,0,1.3c0,2.6-0.4,5.2-1.2,7.9s-1.9,5.1-3.5,7.5
		c-1.6,2.4-3.4,4.5-5.6,6.4s-4.8,3.3-7.8,4.4c-3.1,1.1-6.3,1.7-9.8,1.7c-5.5,0-10.5-1.5-15-4.4c0.7,0.1,1.5,0.1,2.4,0.1
		c4.5,0,8.6-1.4,12.2-4.2c-2.1,0-4-0.7-5.7-2c-1.7-1.3-2.8-2.9-3.5-4.8c0.7,0.1,1.3,0.2,1.8,0.2c0.9,0,1.7-0.1,2.6-0.3
		c-2.3-0.5-4.1-1.6-5.6-3.4c-1.5-1.8-2.2-3.9-2.2-6.2v-0.1c1.4,0.8,2.8,1.2,4.4,1.2c-1.3-0.9-2.4-2.1-3.2-3.5
		c-0.8-1.4-1.2-3-1.2-4.7c0-1.8,0.4-3.4,1.3-4.9c2.4,3,5.4,5.4,8.9,7.2s7.3,2.8,11.3,3c-0.2-0.8-0.2-1.5-0.2-2.2c0-2.7,1-5,2.9-6.9
		s4.2-2.9,6.9-2.9c2.8,0,5.2,1,7.2,3.1c2.2-0.4,4.3-1.2,6.2-2.4c-0.7,2.3-2.2,4.1-4.3,5.4C44.1,10.5,46,10,47.9,9.2z"/>
</g>
</svg>
