<?xml version="1.0" encoding="utf-8"?>
<!-- Generator: Adobe Illustrator 19.2.1, SVG Export Plug-In . SVG Version: 6.00 Build 0)  -->
<svg version="1.1" id="Layer_1" xmlns="http://www.w3.org/2000/svg" xmlns:xlink="http://www.w3.org/1999/xlink" x="0px" y="0px"
	 viewBox="0 0 27 25" style="enable-background:new 0 0 27 25;" xml:space="preserve">
<path class="star-st0" d="M25,10c-0.1-0.2-0.2-0.3-0.4-0.3l-7.2-1l-3.2-6.4C14,2.1,13.9,2,13.7,2c-0.2,0-0.4,0.1-0.4,0.3L10,8.7l-7.2,1
	c-0.2,0-0.4,0.2-0.4,0.3c-0.1,0.2,0,0.4,0.1,0.5l5.3,4.9l-1.3,7c0,0.2,0,0.4,0.2,0.5c0.2,0.1,0.4,0.1,0.5,0l6.5-3.4l6.5,3.4
	c0.1,0,0.2,0.1,0.2,0.1c0.1,0,0.2,0,0.3-0.1c0.2-0.1,0.2-0.3,0.2-0.5l-1.3-7l5.3-4.9C25,10.4,25,10.2,25,10z M18.7,14.9
	c-0.1,0.1-0.2,0.3-0.2,0.5l1.1,6.2l-5.8-3c-0.1-0.1-0.3-0.1-0.5,0l-5.8,3l1.1-6.2c0-0.2,0-0.3-0.2-0.5L4,10.5l6.5-0.9
	c0.2,0,0.3-0.1,0.4-0.3l2.9-5.7l2.9,5.7c0.1,0.1,0.2,0.3,0.4,0.3l6.5,0.9L18.7,14.9z"/>
<path class="star-st1" d="M18.7,14.9c-0.1,0.1-0.2,0.3-0.2,0.5l1.1,6.2l-5.8-3c-0.1-0.1-0.3-0.1-0.5,0l-5.8,3l1.1-6.2
	c0-0.2,0-0.3-0.2-0.5L4,10.5l6.5-0.9c0.2,0,0.3-0.1,0.4-0.3l2.9-5.7l2.9,5.7c0.1,0.1,0.2,0.3,0.4,0.3l6.5,0.9L18.7,14.9z"/>
</svg>
